<?xml version="1.0" encoding="UTF-8" standalone="no"?>
<svg
   xmlns:dc="http://purl.org/dc/elements/1.1/"
   xmlns:cc="http://creativecommons.org/ns#"
   xmlns:rdf="http://www.w3.org/1999/02/22-rdf-syntax-ns#"
   xmlns:svg="http://www.w3.org/2000/svg"
   xmlns="http://www.w3.org/2000/svg"
   xmlns:sodipodi="http://sodipodi.sourceforge.net/DTD/sodipodi-0.dtd"
   xmlns:inkscape="http://www.inkscape.org/namespaces/inkscape"
   version="1.1"
   id="svg10"
   width="1752.2649"
   height="607.03717"
   viewBox="0 0 1752.2649 607.03717"
   sodipodi:docname="02-26-2021.svg"
   inkscape:version="1.0.1 (3bc2e813f5, 2020-09-07)">
  <metadata
     id="metadata16">
    <rdf:RDF>
      <cc:Work
         rdf:about="">
        <dc:format>image/svg+xml</dc:format>
        <dc:type
           rdf:resource="http://purl.org/dc/dcmitype/StillImage" />
        <dc:title></dc:title>
      </cc:Work>
    </rdf:RDF>
  </metadata>
  <defs
     id="defs14" />
  <sodipodi:namedview
     pagecolor="#ffffff"
     bordercolor="#666666"
     borderopacity="1"
     objecttolerance="10"
     gridtolerance="10"
     guidetolerance="10"
     inkscape:pageopacity="0"
     inkscape:pageshadow="2"
     inkscape:window-width="1024"
     inkscape:window-height="538"
     id="namedview12"
     showgrid="false"
     inkscape:zoom="0.47081923"
     inkscape:cx="876.13245"
     inkscape:cy="303.51859"
     inkscape:window-x="-8"
     inkscape:window-y="-8"
     inkscape:window-maximized="1"
     inkscape:current-layer="g18" />
  <g
     inkscape:groupmode="layer"
     inkscape:label="Image"
     id="g18"
     transform="translate(-623.18328,-1198.8656)">
    <path
       style="fill:#000000"
       d="m 625.7046,1804.75 c -0.92271,-0.6875 -1.9433,-2.6041 -2.26797,-4.2592 -0.4946,-2.5213 0.23337,-4.1251 4.48962,-9.8909 9.43172,-12.7769 8.53899,8.4246 8.83625,-209.8521 0.28887,-212.12 0.6985,-197.9349 -5.81943,-201.5205 -8.24769,-4.537 -9.46158,-6.7088 -5.79771,-10.3727 2.02304,-2.023 2.807,-2.112 13.75,-1.5611 21.03316,1.0589 35.48026,5.3879 49.68297,14.8873 20.3943,13.6405 36.38868,42.4025 46.96266,84.4509 7.58229,30.1517 9.72168,46.5373 11.48549,87.9668 1.68659,39.6161 -0.47249,71.0062 -7.14253,103.8425 -12.40672,61.0779 -36.54197,102.2631 -73.71358,125.7875 -4.5813,2.8993 -14.02621,8.984 -20.9887,13.5215 -12.68026,8.2638 -16.12114,9.5005 -19.47707,7 z m 48.9241,-51 c 6.29543,-4.2145 13.25633,-13.52 17.20034,-22.994 3.40316,-8.1747 10.12916,-33.8252 12.65357,-48.256 0.86591,-4.95 2.78993,-20.25 4.27559,-34 2.55646,-23.6604 2.7016,-27.6255 2.7087,-74 0.008,-51.4925 -0.49356,-60.127 -5.57511,-96 -4.65327,-32.8496 -12.98071,-60.4283 -22.07808,-73.1177 C 680.47562,1400.7261 670.81879,1393 668.33721,1393 667.22583,1393 667,1423.7363 667,1575 c 0,154.5201 0.20942,182 1.38699,182 0.76284,0 3.57161,-1.4625 6.24171,-3.25 z m 1639.4426,47.1442 c -4.537,-1.3814 -11.3407,-6.1302 -13.4962,-9.42 -3.1434,-4.7973 -8.782,-10.4742 -10.4036,-10.4742 -0.8777,0 -3.504,1.8728 -5.8363,4.1617 -7.5725,7.4319 -7.3352,9.0403 -7.3352,-49.7168 0,-51.0235 0.012,-51.3138 2.0717,-51.9676 4.0141,-1.2741 5.5756,1.7049 6.3007,12.02 1.2985,18.4726 5.8636,39.1171 12.6383,57.1531 9.1436,24.343 16.5708,32.1515 28.4599,29.9211 7.3042,-1.3703 12.1738,-8.4042 16.7462,-24.1895 2.0995,-7.2479 2.2811,-9.8129 2.257,-31.882 -0.044,-40.666 -3.1662,-52.8669 -39.0192,-152.5 -6.4323,-17.875 -13.2511,-37.2077 -15.153,-42.9617 -7.5999,-22.9933 -11.3016,-46.3681 -11.3016,-71.3658 0,-27.9964 2.7759,-41.007 11.4612,-53.7183 8.2037,-12.0065 18.2205,-18.0299 31.1717,-18.7442 9.5837,-0.5285 14.556,0.8366 24.7542,6.796 3.7591,2.1967 7.253,3.994 7.7643,3.994 0.5113,0 2.2252,-0.9579 3.8087,-2.1286 3.3696,-2.4913 6.8881,-2.0241 10.0122,1.3293 1.9652,2.1094 2.0277,3.3798 2.0261,41.2379 0,35.1861 -0.175,39.4083 -1.75,42.5585 -1.8823,3.7649 -4.4706,4.8933 -6.7964,2.963 -1.0786,-0.8951 -1.452,-3.5937 -1.452,-10.4946 0,-5.1092 -0.6586,-12.7317 -1.4635,-16.9387 -1.9717,-10.3051 -8.1209,-29.7623 -11.5439,-36.5268 -8.3956,-16.5914 -24.9805,-22.2566 -34.6764,-11.845 -3.2371,3.4761 -7.0643,12.3663 -8.9359,20.7572 -4.6318,20.7662 4.0134,57.0663 26.0993,109.5878 29.2861,69.6439 37.0855,93.4489 42.7525,130.4874 2.7584,18.0283 2.9799,49.0865 0.4495,63.0126 -5.097,28.0509 -14.6738,48.5859 -27.8089,59.6295 -9.2951,7.815 -23.2296,11.8745 -31.8014,9.2647 z m -187.8412,-93.4446 c -18.7198,-5.0398 -32.1731,-20.7267 -38.2764,-44.6311 -4.9438,-19.3626 -4.913,-18.1538 -4.9398,-193.8185 -0.017,-109.6399 -0.3683,-165.7359 -1.0543,-168.2059 -1.0156,-3.6568 -7.064,-9.7941 -9.6523,-9.7941 -1.2713,0 -3.3073,-3.0376 -3.3073,-4.9343 0,-2.1864 10.7702,-1.049 22.1071,2.3348 6.2661,1.8702 17.7823,5.3027 25.5915,7.6277 15.2577,4.5427 18.6034,6.5406 18.1089,10.8143 -0.3009,2.6008 -0.4603,2.6575 -7.474,2.6575 -6.2086,0 -7.512,0.3242 -9.7515,2.4257 -1.4218,1.3342 -3.0318,4.0342 -3.5779,6 -1.2893,4.6412 -1.3334,332.0182 -0.046,340.9231 2.8765,19.8952 11.7817,31.8846 24.4638,32.9363 10.4436,0.866 17.4808,-5.8761 23.2604,-22.2851 l 2.8177,-8 0.2645,-165.8184 c 0.2964,-185.8849 0.9195,-170.4984 -7.083,-174.9152 -2.2584,-1.2465 -4.7981,-3.5293 -5.6439,-5.0729 -1.4254,-2.6016 -1.3981,-2.9102 0.3741,-4.2284 1.1277,-0.8389 2.9732,-1.184 4.5,-0.8417 4.7455,1.064 53.5529,18.5656 55.8971,20.0438 1.769,1.1156 2.2366,2.2013 2,4.6444 -0.3301,3.408 -1.6293,3.755 -8.0403,2.1473 -3.9916,-1.001 -7.5011,0.2035 -9.5059,3.2625 -1.6578,2.5297 -1.7962,11.8178 -2.3277,156.2341 -0.6218,168.9452 -0.178,157.4684 -6.7416,174.3718 -5.2165,13.434 -16.7342,27.6154 -26.2923,32.3728 -10.3345,5.1439 -24.8316,6.6677 -35.6709,3.7495 z M 808.75,1706.9327 c -3.37511,-1.9905 -2.05244,-5.3697 4.24611,-10.848 10.16705,-8.843 12.55983,-14.9056 15.42611,-39.0847 0.88018,-7.425 5.65157,-51.3 10.60307,-97.5 4.95151,-46.2 11.24568,-104.475 13.98705,-129.5 5.26239,-48.0386 9.60358,-88.3952 13.06986,-121.5 2.23119,-21.3091 3.9845,-27.7516 7.88988,-28.9911 3.15791,-1.0023 6.78404,0.1893 8.48748,2.789 1.28646,1.9634 31.15704,161.0149 50.53277,269.0711 6.12976,34.185 11.97553,65.5358 14.09705,75.6022 0.82173,3.8991 2.09525,6.4134 4.43184,8.75 2.91281,2.9128 3.89472,3.2788 8.79699,3.2788 3.03502,0 6.23002,0.2731 7.1,0.607 1.9725,0.7569 2.06235,4.7696 0.14962,6.6823 -1.31189,1.3119 -43.511,16.3402 -53.24041,18.9604 -4.84243,1.3041 -7.32742,0.023 -7.32742,-3.7771 0,-1.6475 1.25052,-3.0154 4.49443,-4.9165 5.5191,-3.2344 7.49839,-6.8507 7.52925,-13.7564 0.013,-2.9149 -2.99896,-21.7835 -6.69329,-41.9303 l -6.71697,-36.6306 -2.55671,0.8985 c -1.40619,0.4942 -13.58171,5.5215 -27.05671,11.1716 l -24.5,10.2731 -0.70077,3.959 c -0.38543,2.1774 -1.65316,13.634 -2.81719,25.459 -1.16403,11.825 -2.98618,28.7789 -4.04923,37.6754 -3.15081,26.3685 -3.027,26.8133 7.47123,26.8402 5.8657,0.015 6.10773,0.1171 6.40761,2.7006 0.5111,4.4032 -1.30075,6.2686 -8.99916,9.265 -4.02187,1.5654 -13.01962,5.4301 -19.99501,8.5882 -14.09787,6.3828 -17.5008,7.3771 -20.06748,5.8633 z m 69.43575,-145.5595 c 11.92717,-4.7073 22.35648,-9.0795 23.17625,-9.716 1.31688,-1.0224 1.3201,-2.0308 0.0276,-8.6572 -0.80458,-4.125 -3.9376,-21.45 -6.96227,-38.5 -7.78096,-43.8611 -20.46903,-111.4399 -21.3877,-113.9143 -0.6452,-1.7379 -0.88219,-1.4186 -1.42107,1.9143 -1.18452,7.3262 -5.15077,45.0419 -14.09168,134 -1.93476,19.25 -3.79637,37.2054 -4.13692,39.901 -0.56687,4.4869 -0.46166,4.8431 1.24542,4.2159 1.02553,-0.3768 11.62319,-4.5364 23.55035,-9.2437 z m 139.56425,69.5821 c -2.5956,-1.5643 -2.1548,-5.4917 0.8849,-7.8827 1.4491,-1.1399 3.2592,-2.0726 4.0223,-2.0726 0.7631,0 3.4019,-1.8568 5.8639,-4.1262 7.8394,-7.2261 7.3711,0.2677 8.0143,-128.2449 0.3141,-62.7709 0.2097,-140.1537 -0.2321,-171.9619 l -0.8033,-57.833 -3.198,-2.8564 c -2.1609,-1.9301 -5.1608,-3.2426 -9.25,-4.0472 -4.7813,-0.9406 -6.052,-1.5774 -6.052,-3.0326 0,-2.0529 3.0266,-3.1041 21.2418,-7.3776 12.732,-2.9871 14.9426,-3.0872 17.0088,-0.7702 1.8385,2.0617 4.9003,12.0617 11.2522,36.75 2.5471,9.9 11.3143,41.85 19.4827,71 8.1683,29.15 19.186,68.975 24.4837,88.5 5.2977,19.525 11.0719,39.775 12.8315,45 l 3.1993,9.5 0.2539,-125.9196 c 0.2847,-141.2186 0.9059,-129.909 -7.2027,-131.125 -5.5514,-0.8325 -7.2682,-2.5863 -5.7638,-5.8881 1.2715,-2.7907 3.0533,-3.2425 27.9864,-7.0962 16.2773,-2.5159 17.4202,-2.574 19.8113,-1.0073 3.8449,2.5193 2.8456,5.5343 -2.8528,8.6072 -6.6145,3.5669 -11.3312,8.4219 -13.4417,13.8359 -1.6898,4.3344 -1.8188,14.5461 -2.2906,181.3075 -0.4717,166.7042 -0.5993,176.8138 -2.2532,178.4675 -1.2352,1.2351 -3.8106,1.8693 -8.716,2.1465 -6.5742,0.3715 -7.122,0.2338 -9.8152,-2.4675 -2.2314,-2.238 -3.4492,-5.2559 -5.5933,-13.8609 -5.2496,-21.0689 -20.8187,-77.0501 -29.5981,-106.4247 -4.8616,-16.2664 -11.576,-40.1503 -14.9209,-53.0753 -9.986,-38.587 -17.1597,-64.4399 -18.1613,-65.45 -0.5894,-0.5944 -0.942,42.1568 -0.942,114.1984 v 115.1484 l 2.5435,8.0516 2.5435,8.0516 h 9.7565 c 10.2877,0 12.1565,0.6987 12.1565,4.545 0,2.5814 -2.5847,5.0993 -6,5.845 -1.375,0.3002 -12.625,3.0182 -25,6.0399 -26.5767,6.4895 -28.9531,6.9097 -31.25,5.5254 z m 889.75,-2.3541 c -6.363,-2.0124 -9.6752,-4.1076 -14.6585,-9.2727 -11.2345,-11.6443 -22.5252,-31.3275 -28.7559,-50.1305 -8.7013,-26.2592 -16.3325,-65.3868 -19.0542,-97.698 -2.0932,-24.8504 -0.4626,-72.1577 3.4473,-100.0106 3.4609,-24.655 12.8606,-63.2304 19.4445,-79.7988 9.3266,-23.4702 21.6623,-39.3027 35.8183,-45.9717 5.8375,-2.7501 7.8487,-3.184 14.7585,-3.184 17.2763,0 29.0445,9.7599 42.7631,35.4651 16.3137,30.5679 25.8976,73.4364 29.8005,133.2966 4.5911,70.4167 -9.4033,148.759 -33.8871,189.7034 -12.5721,21.0244 -23.6397,29.1091 -39.608,28.9331 -3.3377,-0.037 -7.8685,-0.6362 -10.0685,-1.3319 z m 18.8364,-18.4187 c 5.1119,-4.9068 7.5618,-9.9717 12.9989,-26.8734 7.901,-24.5609 13.9412,-55.6012 16.6005,-85.3091 1.9033,-21.2629 3.2662,-63.3558 2.6225,-81 -2.131,-58.4186 -13.172,-121.4341 -25.5913,-146.06 -6.3773,-12.6455 -15.2265,-16.3141 -22.815,-9.4583 -8.8804,8.0228 -17.0636,31.9052 -23.6489,69.0183 -13.9526,78.6328 -9.5293,189.7546 10.1302,254.4929 5.8404,19.232 15.339,31.1926 23.3667,29.4232 1.375,-0.3031 4.2264,-2.2082 6.3364,-4.2336 z M 1771,1597.3092 c -1.925,-0.204 -9.7236,-1.2569 -17.3301,-2.34 -7.6066,-1.0831 -15.9316,-1.9761 -18.5,-1.9845 -2.5685,-0.01 -5.2582,-0.3884 -5.9773,-0.8445 -0.8364,-0.5305 -4.3343,-18.6253 -9.7109,-50.2347 -8.4662,-49.7732 -13.9175,-77.6507 -15.5065,-79.2984 -0.5005,-0.5191 -3.8144,0.3183 -7.9149,2 l -7.0538,2.8929 v 52.1942 52.1943 l 2.4128,2.8057 c 1.4861,1.7282 4.4626,3.3995 7.75,4.3515 4.8964,1.4181 5.3372,1.7897 5.3372,4.5 0,2.3389 -0.4889,3.0235 -2.3472,3.2866 -3.9196,0.5549 -62.5587,-5.9469 -63.9511,-7.0907 -2.5382,-2.0853 -0.9396,-5.1743 3.2983,-6.3732 2.2,-0.6224 6.2085,-1.7568 8.9077,-2.5209 3.1676,-0.8967 5.6495,-2.3828 7,-4.1917 l 2.0923,-2.8024 v -166.1767 c 0,-91.3972 -0.3597,-167.8738 -0.7993,-169.9481 -1.1429,-5.3921 -6.1959,-10.6182 -13.4507,-13.9114 -6.6494,-3.0184 -7.6105,-4.7509 -4.0275,-7.2605 3.1717,-2.2216 7.114,-1.9508 20.0107,1.3745 40.9392,10.5557 65.6161,30.1505 82.2848,65.3387 15.542,32.8093 19.4658,71.6049 11.3787,112.5029 -3.4962,17.6808 -8.3844,29.7098 -18.2559,44.9247 -2.5684,3.9587 -4.9318,8.5076 -5.252,10.1087 -0.3503,1.7512 2.617,19.802 7.447,45.3025 4.4161,23.3152 9.6181,51.2177 11.56,62.0054 1.9418,10.7878 4.5078,22.226 5.7022,25.4184 2.7185,7.2658 9.0311,13.6298 16.156,16.2876 5.999,2.2379 7.7677,4.2439 5.8156,6.5961 -0.723,0.8711 -1.8219,1.5118 -2.442,1.4238 -0.6202,-0.088 -2.7026,-0.3269 -4.6276,-0.5308 z m -73.4838,-152.4733 c 8.278,-7.7436 13.2669,-16.1629 18.3257,-30.9266 8.023,-23.4145 10.5938,-41.6896 10.6077,-75.4093 0.012,-27.8483 -1.2662,-38.8541 -6.6071,-56.9143 -7.0536,-23.8512 -16.4029,-37.2662 -28.5925,-41.0264 l -2.25,-0.6941 v 105.5674 c 0,67.0389 0.3516,105.5674 0.9634,105.5674 0.5299,0 3.9287,-2.7738 7.5528,-6.1641 z m -398.2655,136.6807 c -15.8473,-4.4537 -27.0409,-15.3478 -37.9262,-36.9115 -9.117,-18.0608 -14.7235,-39.4286 -19.706,-75.1051 -4.0855,-29.2537 -4.8875,-41.3388 -4.8778,-73.5 0.023,-74.8696 6.0279,-112.5402 23.7217,-148.8029 14.0856,-28.8676 26.3657,-40.9101 47.1336,-46.2217 10.1821,-2.6041 33.371,-2.8655 35.8326,-0.404 1.3523,1.3524 1.5714,5.4043 1.5714,29.0658 0,28.1818 -0.3969,31.3628 -3.9127,31.3628 -2.6824,0 -3.3599,-1.165 -9.0138,-15.5 -6.5096,-16.5044 -10.8767,-24.4067 -15.0594,-27.25 -9.063,-6.1609 -17.3527,0.9212 -26.0753,22.2767 -8.3515,20.4471 -13.8743,47.1389 -16.4439,79.4733 -0.8523,10.725 -1.9869,24.225 -2.5214,30 -1.2535,13.5432 -1.2377,67.0394 0.027,91.5 3.189,61.6809 14.2807,107.0798 29.7546,121.7875 3.7379,3.5529 9.2952,4.5648 12.7255,2.3171 l 2.5194,-1.6507 v -65.4212 -65.4212 l -2.2516,-2.6176 c -1.5788,-1.8355 -3.5955,-2.7888 -6.75,-3.1908 -4.8964,-0.6239 -6.9984,-1.7961 -6.9984,-3.9025 0,-3.2436 4.3914,-4.2448 23.5,-5.3581 10.45,-0.6088 22.699,-1.6087 27.22,-2.222 6.4905,-0.8805 8.5419,-0.848 9.75,0.1546 2.9837,2.4762 1.8041,4.7731 -3.3264,6.4772 -4.4968,1.4936 -7.5207,3.8357 -9.7448,7.5477 -0.4944,0.825 -1.1238,30.75 -1.3988,66.5 l -0.5,65 -2.3507,4.7738 c -3.1277,6.3516 -7.4697,10.5257 -14.1129,13.5671 -6.9113,3.1641 -22.4754,4.0113 -30.7857,1.6757 z m 138.8035,-7.9513 c -0.6549,-0.789 -1.0475,-2.9265 -0.8724,-4.75 0.3156,-3.2878 0.3694,-3.3202 6.5023,-3.9071 7.0959,-0.6791 10.5307,-2.5663 13.0451,-7.1676 1.6745,-3.0644 1.7708,-12.3814 1.7708,-171.3856 0,-160.1858 -0.085,-168.2386 -1.7906,-170.1235 -0.9848,-1.0883 -4.883,-2.9546 -8.6628,-4.1475 -7.5905,-2.3957 -9.3607,-3.8459 -8.8734,-7.2696 0.686,-4.819 3.8085,-5.289 37.3891,-5.6275 29.9295,-0.3017 63.0542,0.8505 66.6877,2.3195 1.5808,0.6392 1.75,2.5526 1.75,19.792 0,10.4964 0.511,24.1246 1.1355,30.2849 0.6246,6.1603 0.8427,12.3673 0.4848,13.7934 -0.7337,2.9233 -4.9185,4.5487 -7.5251,2.9228 -0.8773,-0.5473 -3.6463,-6.8011 -6.1532,-13.8973 -6.0292,-17.0669 -10.3399,-25.5822 -16.1916,-31.9849 -8.6442,-9.4582 -19.0049,-11.0809 -25.4998,-3.9937 l -3.2506,3.547 v 68.3923 c 0,75.4519 -0.3525,71.4688 6.209,70.1551 16.5359,-3.3105 21.1586,-7.6273 24.3343,-22.7237 1.9343,-9.1957 3.6968,-12.0182 7.2461,-11.6047 4.9652,0.5785 5.1799,2.2867 5.1959,41.3379 0.013,31.0055 -0.2023,36.3373 -1.542,38.25 -3.4824,4.9718 -7.4557,1.8969 -9.9262,-7.6816 -3.3465,-12.975 -8.4246,-19.8655 -16.2398,-22.0358 -4.8277,-1.3406 -10.8635,-1.3519 -13.343,-0.025 -1.89,1.0115 -1.9343,3.0613 -1.9343,89.5352 0,100.5203 -0.7422,92.2859 8.5616,94.9905 8.0447,2.3387 12.4225,0.8253 19.9468,-6.8955 5.3745,-5.5149 7.2208,-8.6753 17.5,-29.9559 10.5807,-21.9048 11.6818,-23.7675 13.8907,-23.5 4.5731,0.5537 4.7212,2.6051 1.2606,17.4562 -1.7731,7.6089 -4.9624,22.8146 -7.0874,33.7906 -3.2285,16.6758 -4.2278,20.2512 -6.0788,21.75 -2.0603,1.6684 -5.5174,1.7937 -49.4818,1.7937 -39.8385,0 -47.4539,-0.2255 -48.4575,-1.4347 z"
       id="path22" />
  </g>
</svg>
